<svg xmlns="http://www.w3.org/2000/svg" width="350" height="90" viewBox="0 0 410.15384615384613 92" class="looka-1j8o68f"><defs id="SvgjsDefs1013"/><g id="SvgjsG1014" featurekey="symbolContainer" transform="matrix(1,0,0,1,0,0)" fill="#0a192f "><rect xmlns="http://www.w3.org/2000/svg" width="94" height="92" rx="10" ry="10"/></g><g id="SvgjsG1015" featurekey="uHI19F-0" transform="matrix(0.8039973927639306,0,0,0.8039973927639306,6.731995792452436,1.2544798561325017)" fill="#fff"><g xmlns="http://www.w3.org/2000/svg"><path d="M83.0033951,29.8232002c-1.7485046-1.0869007-11.6396027-6.5078011-34.706501-6.5078011   c-20.948801,0-30.8047009,4.4444008-31.2138939,4.6333008c-0.3809071,0.1763-0.6113071,0.5713005-0.5771065,0.9892998   c1.6844997,20.5498009,17.0321999,46.6924019,30.3099976,58.2162971c0.1865005,0.1621017,0.4204025,0.244606,0.6553001,0.244606   c0.1899033,0,0.3799019-0.0537033,0.5469017-0.1631012c7.5946999-4.9624023,14.5102005-12.7451019,22.4232979-25.2343025   C77.3388901,51.1152,83.4755936,35.4141006,83.4755936,30.6723995   C83.4755936,30.3267002,83.2968903,30.0053997,83.0033951,29.8232002z M75.5031891,28.7730999   c-4.1679993-0.4578991-9.521698-0.9167004-14.2448959-0.9167004h-0.7158012   c-9.3144913-0.0091991-17.3432999-0.0077991-30.1791992,6.1240997c-0.2441998,0.1166992-0.4312,0.3276024-0.5170994,0.5844002   c-0.0858994,0.2574005-0.0639992,0.5381012,0.0604992,0.7784004c7.8887024,15.2030983,17.0699005,25.6917,19.3586998,28.198101   c-1.0326004,1.6354027-2.137394,3.2695961-3.3239975,4.8745995c-11.6485023-8.7486992-22.5248013-28.6885986-27.1077003-39.0128021   c2.8405991-1.0548992,12.4786987-4.087801,29.4631996-4.087801C61.5057907,25.3153992,70.2168961,27.093399,75.5031891,28.7730999z    M50.358593,61.7695007c-2.1784019-2.4263992-8.0834999-9.3376999-14.1547012-19.3204002   c3.5774002-0.797699,13.3383026-2.7476997,24.1203995-2.9892998C59.2980003,42.7854996,56.1381912,52.1222992,50.358593,61.7695007   z M19.4895935,35.4665985c5.641407,11.321701,15.5709991,27.7423019,26.0840988,35.1555023   c0.1748009,0.1230011,0.3759995,0.1826019,0.5751991,0.1826019c0.302803,0,0.6011086-0.1367035,0.7974014-0.3950043   c9.6833-12.740799,14.4558983-27.5527992,15.4756012-30.9759979c0.0248985,0,0.0496979-0.0005989,0.0746994-0.0005989   c3.3984032,0,5.5464058,0.2641983,6.6308022,0.4477997c-0.4887009,2.9872971-2.4057007,12.8373985-7.6723022,22.4252968   c-5.3190002,9.6828995-12.0741997,19.5909042-14.1576996,22.5951996   C35.9306946,74.5770035,23.2844944,53.7619019,19.4895935,35.4665985z M68.7519989,60.9311981   c-6.0351067,9.5246048-11.4516068,16.2329025-17.0195045,21.0036011   c3.0636978-4.5844955,7.6379967-11.6794968,11.4755058-18.6657982c6.457489-11.7558022,7.9794922-23.5561028,8.0410004-24.0527   c0.0610886-0.4888-0.2436066-0.9491997-0.7177048-1.0844994c-0.0997009-0.028801-2.5092926-0.6987-8.0347023-0.6987   c-12.5354004,0-24.1823997,2.4735985-27.3712006,3.2098999c-0.9934998-1.690403-1.9856987-3.4556999-2.9608002-5.299202   c11.8862-5.4941998,19.528801-5.5098,28.3768997-5.4874001h0.7168007c7.7294006,0,17.2089005,1.2535,20.1493988,1.6707001   C80.7537918,36.4818001,75.2291946,50.7074013,68.7519989,60.9311981z"/></g></g><g id="SvgjsG1016" featurekey="8FbbNb-0" transform="matrix(2.59556397996812,0,0,2.59556397996812,110.47003635368223,6.33364748071685)" fill="#aa96da"><path d="M3.16 4.880000000000001 l0.000019531 7.1 l0.04 0 c0.25334 -0.53334 0.66334 -0.95 1.23 -1.25 s1.1967 -0.45 1.89 -0.45 c1.0533 0 1.89 0.32 2.51 0.96 s0.93 1.5 0.93 2.58 l0 6.18 l-1.8 0 l0 -5.66 c0 -0.73334 -0.19 -1.3133 -0.57 -1.74 s-0.91 -0.64 -1.59 -0.64 c-0.84 0 -1.4867 0.27334 -1.94 0.82 s-0.68668 1.3 -0.70002 2.26 l0 4.96 l-1.8 0 l0 -15.12 l1.8 0 z M16.28 10.28 c1.2 0 2.15 0.27328 2.85 0.81994 s1.07 1.3067 1.11 2.28 l0 5.08 c0 0.48 0.02666 0.99334 0.08 1.54 l-1.6 0 c-0.04 -0.42666 -0.06 -0.90666 -0.06 -1.44 l-0.04 0 c-0.41334 0.61334 -0.89 1.0467 -1.43 1.3 s-1.17 0.38 -1.89 0.38 c-0.97334 0 -1.7633 -0.26 -2.37 -0.78 s-0.91 -1.2067 -0.91 -2.06 c0 -1.08 0.45334 -1.8967 1.36 -2.45 s2.1866 -0.83 3.84 -0.83 l1.34 0 l0 -0.34 c0 -0.64 -0.21 -1.1433 -0.63 -1.51 s-0.97 -0.55 -1.65 -0.55 c-0.50666 0 -0.95 0.07666 -1.33 0.23 s-0.83 0.43668 -1.35 0.85002 l-1.08 -1.12 c1.0267 -0.90666 2.28 -1.3733 3.76 -1.4 z M13.82 17.259999999999998 c0 1.0267 0.68002 1.54 2.04 1.54 c0.81334 0 1.4633 -0.24334 1.95 -0.73 s0.73666 -1.19 0.75 -2.11 l0 -0.52 l-1.02 0 c-1.1733 0 -2.0866 0.15 -2.74 0.45 s-0.98 0.75666 -0.98 1.37 z M26.06 10.28 c0.72 0 1.3633 0.13338 1.93 0.40004 s1.0033 0.65332 1.31 1.16 l-1.4 1.06 c-0.53334 -0.62666 -1.18 -0.94 -1.94 -0.94 c-0.45334 0 -0.83 0.1 -1.13 0.3 s-0.45 0.45334 -0.45 0.76 c0 0.66666 0.62 1.12 1.86 1.36 c1.2133 0.22666 2.07 0.56 2.57 1 s0.75 1.0667 0.75 1.88 c0 0.92 -0.35 1.6433 -1.05 2.17 s-1.6367 0.79666 -2.81 0.81 c-0.88 0 -1.6033 -0.13666 -2.17 -0.41 s-1.0567 -0.69668 -1.47 -1.27 l1.36 -1.12 c0.72 0.74666 1.4867 1.12 2.3 1.12 c0.53334 0 0.98668 -0.10666 1.36 -0.32 s0.56 -0.50668 0.56 -0.88002 c0 -0.65334 -0.6 -1.1067 -1.8 -1.36 c-1.3333 -0.26666 -2.23 -0.62332 -2.69 -1.07 s-0.69 -1.0233 -0.69 -1.73 c0 -0.88 0.34 -1.5833 1.02 -2.11 s1.54 -0.79666 2.58 -0.81 z M35.540000000000006 10.28 c1.2 0 2.15 0.27328 2.85 0.81994 s1.07 1.3067 1.11 2.28 l0 5.08 c0 0.48 0.02666 0.99334 0.08 1.54 l-1.6 0 c-0.04 -0.42666 -0.06 -0.90666 -0.06 -1.44 l-0.04 0 c-0.41334 0.61334 -0.89 1.0467 -1.43 1.3 s-1.17 0.38 -1.89 0.38 c-0.97334 0 -1.7633 -0.26 -2.37 -0.78 s-0.91 -1.2067 -0.91 -2.06 c0 -1.08 0.45334 -1.8967 1.36 -2.45 s2.1866 -0.83 3.84 -0.83 l1.34 0 l0 -0.34 c0 -0.64 -0.21 -1.1433 -0.63 -1.51 s-0.97 -0.55 -1.65 -0.55 c-0.50666 0 -0.95 0.07666 -1.33 0.23 s-0.83 0.43668 -1.35 0.85002 l-1.08 -1.12 c1.0267 -0.90666 2.28 -1.3733 3.76 -1.4 z M33.080000000000005 17.259999999999998 c0 1.0267 0.68002 1.54 2.04 1.54 c0.81334 0 1.4633 -0.24334 1.95 -0.73 s0.73666 -1.19 0.75 -2.11 l0 -0.52 l-1.02 0 c-1.1733 0 -2.0866 0.15 -2.74 0.45 s-0.98 0.75666 -0.98 1.37 z M47.080000000000005 10.28 c1.0667 0 1.9033 0.32 2.51 0.96 s0.91666 1.5 0.93 2.58 l0 6.18 l-1.8 0 l0 -5.66 c0 -0.73334 -0.19 -1.3133 -0.57 -1.74 s-0.91 -0.64 -1.59 -0.64 c-0.84 0 -1.49 0.28 -1.95 0.84 s-0.69 1.3067 -0.69 2.24 l0 4.96 l-1.8 0 l0 -9.48 l1.8 0 l0 1.46 l0.04 0 c0.25334 -0.53334 0.66334 -0.95 1.23 -1.25 s1.1967 -0.45 1.89 -0.45 z M62.74000000000001 4.880000000000001 l-0.000019531 15.12 l-1.8 0 l0 -1.36 l-0.04 0 c-0.34666 0.50666 -0.81666 0.9 -1.41 1.18 s-1.2233 0.42 -1.89 0.42 c-1.4267 -0.01334 -2.5834 -0.48668 -3.47 -1.42 s-1.3367 -2.12 -1.35 -3.56 c0 -1.4533 0.44334 -2.64 1.33 -3.56 s2.05 -1.3933 3.49 -1.42 c0.65334 0 1.28 0.14 1.88 0.42 s1.0733 0.67334 1.42 1.18 l0.04 0 l0 -7 l1.8 0 z M54.70000000000001 15.26 c0 0.97334 0.28666 1.7633 0.86 2.37 s1.3267 0.91666 2.26 0.93 c0.94666 0 1.7033 -0.30334 2.27 -0.91 s0.85 -1.4033 0.85 -2.39 c0 -0.97334 -0.28 -1.7633 -0.84 -2.37 s-1.3267 -0.91666 -2.3 -0.93 c-0.93334 0 -1.6833 0.30666 -2.25 0.92 s-0.85 1.4067 -0.85 2.38 z M69.80000000000001 10.28 c1.4533 0 2.5834 0.45664 3.39 1.37 s1.2167 2.17 1.23 3.77 l0 0.5 l-7.6 0 c0 0.77334 0.31 1.4233 0.93 1.95 s1.3767 0.79666 2.27 0.81 c0.98666 0 1.8533 -0.47334 2.6 -1.42 l1.36 1.04 c-1.0133 1.2933 -2.4134 1.94 -4.2 1.94 c-1.4533 0 -2.6234 -0.46334 -3.51 -1.39 s-1.3433 -2.1234 -1.37 -3.59 c0 -1.4133 0.45666 -2.59 1.37 -3.53 s2.09 -1.4233 3.53 -1.45 z M72.50000000000001 14.48 c-0.02666 -0.89334 -0.28 -1.5767 -0.76 -2.05 s-1.14 -0.71 -1.98 -0.71 c-0.56 0 -1.0633 0.13666 -1.51 0.41 s-0.79666 0.62668 -1.05 1.06 s-0.38 0.86334 -0.38 1.29 l5.68 0 z M77.52000000000001 10.52 l2.84 7.26 l2.72 -7.26 l1.92 0 l-3.72 9.48 l-1.98 0 l-3.86 -9.48 l2.08 0 z M91.74000000000001 10.28 c1.4 0 2.5434 0.45998 3.43 1.38 s1.3433 2.12 1.37 3.6 c0 1.48 -0.45334 2.6766 -1.36 3.59 s-2.06 1.3767 -3.46 1.39 c-0.69334 0 -1.34 -0.14666 -1.94 -0.44 s-1.0533 -0.68 -1.36 -1.16 l-0.04 0 l0 7 l-1.8 0 l0 -15.12 l1.8 0 l0 1.36 l0.04 0 c0.36 -0.50666 0.83334 -0.9 1.42 -1.18 s1.22 -0.42 1.9 -0.42 z M88.38000000000001 15.26 c0 0.98666 0.28998 1.7833 0.86998 2.39 s1.33 0.91 2.25 0.91 c0.96 0 1.7167 -0.30334 2.27 -0.91 s0.83668 -1.4033 0.85002 -2.39 c0 -0.98666 -0.28334 -1.78 -0.85 -2.38 s-1.33 -0.90666 -2.29 -0.92 c-0.94666 0 -1.7 0.31 -2.26 0.93 s-0.84 1.41 -0.84 2.37 z M103.48000000000002 10.28 c0.33334 0 0.6 0.04 0.8 0.12 l-0.08 1.94 c-0.34666 -0.09334 -0.64666 -0.14 -0.9 -0.14 c-1.7733 0 -2.6734 0.98666 -2.7 2.96 l0 4.84 l-1.8 0 l0 -9.48 l1.8 0 l0 1.46 l0.04 0 c0.24 -0.50666 0.62666 -0.91666 1.16 -1.23 s1.0933 -0.47 1.68 -0.47 z M110.42000000000002 10.28 c1.4 0 2.5866 0.48338 3.56 1.45 s1.4667 2.1434 1.48 3.53 c0 1.4 -0.48666 2.5734 -1.46 3.52 s-2.1666 1.4333 -3.58 1.46 c-1.3867 0 -2.5666 -0.48 -3.54 -1.44 s-1.4733 -2.14 -1.5 -3.54 c0 -1.3733 0.48334 -2.54 1.45 -3.5 s2.1634 -1.4533 3.59 -1.48 z M107.30000000000001 15.26 c0 0.97334 0.28664 1.7633 0.85998 2.37 s1.3267 0.91666 2.26 0.93 c0.94666 0 1.7 -0.30334 2.26 -0.91 s0.84666 -1.4033 0.86 -2.39 c0 -0.97334 -0.28 -1.7633 -0.84 -2.37 s-1.3267 -0.91666 -2.3 -0.93 c-0.94666 0 -1.7 0.31334 -2.26 0.94 s-0.84 1.4133 -0.84 2.36 z"/></g></svg>